<svg width="16" height="16" viewBox="0 0 16 16" fill="none" xmlns="http://www.w3.org/2000/svg">
<path d="M2.42345 15.9645C2.00248 15.9645 1.64616 15.8187 1.35449 15.527C1.06283 15.2354 0.916992 14.879 0.916992 14.4581V3.30432C0.916992 2.88335 1.06283 2.52703 1.35449 2.23536C1.64616 1.9437 2.00248 1.79786 2.42345 1.79786H3.5772V0.0351562H4.85928V1.79786H11.1735V0.0351562H12.4235V1.79786H13.5772C13.9982 1.79786 14.3545 1.9437 14.6462 2.23536C14.9378 2.52703 15.0837 2.88335 15.0837 3.30432V14.4581C15.0837 14.879 14.9378 15.2354 14.6462 15.527C14.3545 15.8187 13.9982 15.9645 13.5772 15.9645H2.42345ZM2.42345 14.7145H13.5772C13.6414 14.7145 13.7001 14.6878 13.7535 14.6343C13.8069 14.581 13.8337 14.5222 13.8337 14.4581V6.63766H2.16699V14.4581C2.16699 14.5222 2.19373 14.581 2.2472 14.6343C2.30053 14.6878 2.35928 14.7145 2.42345 14.7145ZM2.16699 5.38766H13.8337V3.30432C13.8337 3.24016 13.8069 3.18141 13.7535 3.12807C13.7001 3.0746 13.6414 3.04786 13.5772 3.04786H2.42345C2.35928 3.04786 2.30053 3.0746 2.2472 3.12807C2.19373 3.18141 2.16699 3.24016 2.16699 3.30432V5.38766ZM8.00033 9.7787C7.7963 9.7787 7.62241 9.70682 7.47866 9.56307C7.33505 9.41946 7.26324 9.24557 7.26324 9.04141C7.26324 8.83738 7.33505 8.66349 7.47866 8.51974C7.62241 8.37613 7.7963 8.30432 8.00033 8.30432C8.20435 8.30432 8.37824 8.37613 8.52199 8.51974C8.6656 8.66349 8.73741 8.83738 8.73741 9.04141C8.73741 9.24557 8.6656 9.41946 8.52199 9.56307C8.37824 9.70682 8.20435 9.7787 8.00033 9.7787ZM4.66699 9.7787C4.46296 9.7787 4.28908 9.70682 4.14533 9.56307C4.00171 9.41946 3.92991 9.24557 3.92991 9.04141C3.92991 8.83738 4.00171 8.66349 4.14533 8.51974C4.28908 8.37613 4.46296 8.30432 4.66699 8.30432C4.87102 8.30432 5.04491 8.37613 5.18866 8.51974C5.33227 8.66349 5.40408 8.83738 5.40408 9.04141C5.40408 9.24557 5.33227 9.41946 5.18866 9.56307C5.04491 9.70682 4.87102 9.7787 4.66699 9.7787ZM11.3337 9.7787C11.1296 9.7787 10.9557 9.70682 10.812 9.56307C10.6684 9.41946 10.5966 9.24557 10.5966 9.04141C10.5966 8.83738 10.6684 8.66349 10.812 8.51974C10.9557 8.37613 11.1296 8.30432 11.3337 8.30432C11.5377 8.30432 11.7116 8.37613 11.8553 8.51974C11.9989 8.66349 12.0707 8.83738 12.0707 9.04141C12.0707 9.24557 11.9989 9.41946 11.8553 9.56307C11.7116 9.70682 11.5377 9.7787 11.3337 9.7787ZM8.00033 13.0479C7.7963 13.0479 7.62241 12.976 7.47866 12.8322C7.33505 12.6886 7.26324 12.5148 7.26324 12.3108C7.26324 12.1066 7.33505 11.9327 7.47866 11.7891C7.62241 11.6454 7.7963 11.5735 8.00033 11.5735C8.20435 11.5735 8.37824 11.6454 8.52199 11.7891C8.6656 11.9327 8.73741 12.1066 8.73741 12.3108C8.73741 12.5148 8.6656 12.6886 8.52199 12.8322C8.37824 12.976 8.20435 13.0479 8.00033 13.0479ZM4.66699 13.0479C4.46296 13.0479 4.28908 12.976 4.14533 12.8322C4.00171 12.6886 3.92991 12.5148 3.92991 12.3108C3.92991 12.1066 4.00171 11.9327 4.14533 11.7891C4.28908 11.6454 4.46296 11.5735 4.66699 11.5735C4.87102 11.5735 5.04491 11.6454 5.18866 11.7891C5.33227 11.9327 5.40408 12.1066 5.40408 12.3108C5.40408 12.5148 5.33227 12.6886 5.18866 12.8322C5.04491 12.976 4.87102 13.0479 4.66699 13.0479ZM11.3337 13.0479C11.1296 13.0479 10.9557 12.976 10.812 12.8322C10.6684 12.6886 10.5966 12.5148 10.5966 12.3108C10.5966 12.1066 10.6684 11.9327 10.812 11.7891C10.9557 11.6454 11.1296 11.5735 11.3337 11.5735C11.5377 11.5735 11.7116 11.6454 11.8553 11.7891C11.9989 11.9327 12.0707 12.1066 12.0707 12.3108C12.0707 12.5148 11.9989 12.6886 11.8553 12.8322C11.7116 12.976 11.5377 13.0479 11.3337 13.0479Z" fill="black"/>
</svg>
