<svg width="18" height="18" viewBox="0 0 18 18" fill="none" xmlns="http://www.w3.org/2000/svg">
<g clip-path="url(#clip0_2369_2179)">
<path d="M16.5 4.29002L13.05 1.39502L12.0825 2.54252L15.5325 5.43752L16.5 4.29002ZM5.91 2.54252L4.95 1.39502L1.5 4.28252L2.4675 5.43002L5.91 2.54252ZM9.375 6.00002H8.25V10.5L11.8125 12.6375L12.375 11.715L9.375 9.93752V6.00002ZM9 3.00002C5.2725 3.00002 2.25 6.02252 2.25 9.75002C2.25 13.4775 5.265 16.5 9 16.5C12.7275 16.5 15.75 13.4775 15.75 9.75002C15.75 6.02252 12.7275 3.00002 9 3.00002ZM9 15C6.0975 15 3.75 12.6525 3.75 9.75002C3.75 6.84752 6.0975 4.50002 9 4.50002C11.9025 4.50002 14.25 6.84752 14.25 9.75002C14.25 12.6525 11.9025 15 9 15Z" fill="#252C6D"/>
</g>
<defs>
<clipPath id="clip0_2369_2179">
<rect width="18" height="18" fill="white"/>
</clipPath>
</defs>
</svg>
